<svg width="24" height="24" viewBox="0 0 24 24" fill="none" xmlns="http://www.w3.org/2000/svg">
<path fill-rule="evenodd" clip-rule="evenodd" d="M0.302821 0.302821C0.706582 -0.10094 1.36121 -0.10094 1.76497 0.302821L12 10.5379L22.235 0.302823C22.6388 -0.100938 23.2934 -0.100938 23.6972 0.302823C24.1009 0.706583 24.1009 1.36121 23.6972 1.76497L13.4621 12L23.6972 22.235C24.1009 22.6388 24.1009 23.2934 23.6972 23.6972C23.2934 24.1009 22.6388 24.1009 22.235 23.6972L12 13.4621L1.76497 23.6972C1.36121 24.1009 0.706583 24.1009 0.302822 23.6972C-0.100938 23.2934 -0.100939 22.6388 0.302822 22.235L10.5379 12L0.302821 1.76497C-0.10094 1.36121 -0.10094 0.706581 0.302821 0.302821Z" fill="#1B2232"/>
</svg>
