<svg width="16" height="16" viewBox="0 0 16 16" fill="none" xmlns="http://www.w3.org/2000/svg">
<path fill-rule="evenodd" clip-rule="evenodd" d="M1.55483 0.266767C1.19914 -0.0889224 0.622457 -0.0889224 0.266767 0.266767C-0.0889224 0.622457 -0.0889224 1.19914 0.266767 1.55483L6.71193 8L0.266768 14.4452C-0.0889213 14.8009 -0.0889212 15.3775 0.266768 15.7332L0.438188 15.5618L0.266768 15.7332C0.622458 16.0889 1.19914 16.0889 1.55483 15.7332L8 9.28807L14.4452 15.7332C14.8009 16.0889 15.3775 16.0889 15.7332 15.7332C16.0889 15.3775 16.0889 14.8009 15.7332 14.4452L9.28807 8L15.7332 1.55483C16.0889 1.19914 16.0889 0.622458 15.7332 0.266768C15.3775 -0.0889211 14.8009 -0.0889209 14.4452 0.266768L14.6166 0.438188L14.4452 0.266769L8 6.71193L1.55483 0.266767Z" fill="white"/>
</svg>
