<svg width="40" height="40" viewBox="0 0 40 40" fill="none" xmlns="http://www.w3.org/2000/svg">
<path d="M36 20C36 28.8366 28.8366 36 20 36C11.1634 36 4 28.8366 4 20C4 11.1634 11.1634 4 20 4C28.8366 4 36 11.1634 36 20Z" fill="white"/>
<path fill-rule="evenodd" clip-rule="evenodd" d="M40 20C40 31.0457 31.0457 40 20 40C8.95431 40 0 31.0457 0 20C0 8.95431 8.95431 0 20 0C31.0457 0 40 8.95431 40 20ZM20 36C28.8366 36 36 28.8366 36 20C36 11.1634 28.8366 4 20 4C11.1634 4 4 11.1634 4 20C4 28.8366 11.1634 36 20 36Z" fill="#1B2232"/>
<path d="M15 20.15H17.35V30V30.15H17.5H21.25H21.4V30V20.15H23.75H23.8516L23.8893 20.0557L25.1393 16.9307L25.2216 16.725H25H21.4V14.375C21.4 13.7678 21.8928 13.275 22.5 13.275H23.75H23.9V13.125V10V9.85H23.75H21.25C19.0959 9.85 17.35 11.5959 17.35 13.75V16.725H15H14.85V16.875V20V20.15H15Z" fill="#1B2232" stroke="#1B2232" stroke-width="0.3"/>
</svg>
