<svg width="40" height="40" viewBox="0 0 40 40" fill="none" xmlns="http://www.w3.org/2000/svg">
<path d="M36 20C36 28.8366 28.8366 36 20 36C11.1634 36 4 28.8366 4 20C4 11.1634 11.1634 4 20 4C28.8366 4 36 11.1634 36 20Z" fill="white"/>
<path fill-rule="evenodd" clip-rule="evenodd" d="M40 20C40 31.0457 31.0457 40 20 40C8.95431 40 0 31.0457 0 20C0 8.95431 8.95431 0 20 0C31.0457 0 40 8.95431 40 20ZM20 36C28.8366 36 36 28.8366 36 20C36 11.1634 28.8366 4 20 4C11.1634 4 4 11.1634 4 20C4 28.8366 11.1634 36 20 36Z" fill="#1B2232"/>
<path d="M23.75 9.85H16.25C12.7159 9.85 9.85 12.7159 9.85 16.25V23.75C9.85 27.2841 12.7159 30.15 16.25 30.15H23.75C27.2841 30.15 30.15 27.2841 30.15 23.75V16.25C30.15 12.7159 27.2841 9.85 23.75 9.85ZM27.975 23.75C27.975 26.0797 26.0797 27.975 23.75 27.975H16.25C13.9203 27.975 12.025 26.0797 12.025 23.75V16.25C12.025 13.9203 13.9203 12.025 16.25 12.025H23.75C26.0797 12.025 27.975 13.9203 27.975 16.25V23.75Z" fill="#1B2232" stroke="#1B2232" stroke-width="0.3"/>
<path d="M20 14.85C17.1559 14.85 14.85 17.1559 14.85 20C14.85 22.8441 17.1559 25.15 20 25.15C22.8441 25.15 25.15 22.8441 25.15 20C25.15 17.1559 22.8441 14.85 20 14.85ZM20 22.975C18.3603 22.975 17.025 21.6397 17.025 20C17.025 18.3591 18.3603 17.025 20 17.025C21.6397 17.025 22.975 18.3591 22.975 20C22.975 21.6397 21.6397 22.975 20 22.975Z" fill="#1B2232" stroke="#1B2232" stroke-width="0.3"/>
<path d="M25.375 15.4413C25.8258 15.4413 26.1912 15.0758 26.1912 14.625C26.1912 14.1742 25.8258 13.8088 25.375 13.8088C24.9242 13.8088 24.5587 14.1742 24.5587 14.625C24.5587 15.0758 24.9242 15.4413 25.375 15.4413Z" fill="#1B2232" stroke="#1B2232" stroke-width="0.3"/>
</svg>
