<svg width="22" height="22" viewBox="0 0 22 22" fill="none" xmlns="http://www.w3.org/2000/svg">
<path d="M14.75 0.85H7.25C3.71591 0.85 0.85 3.71591 0.85 7.25V14.75C0.85 18.2841 3.71591 21.15 7.25 21.15H14.75C18.2841 21.15 21.15 18.2841 21.15 14.75V7.25C21.15 3.71591 18.2841 0.85 14.75 0.85ZM18.975 14.75C18.975 17.0797 17.0797 18.975 14.75 18.975H7.25C4.92034 18.975 3.025 17.0797 3.025 14.75V7.25C3.025 4.92034 4.92034 3.025 7.25 3.025H14.75C17.0797 3.025 18.975 4.92034 18.975 7.25V14.75Z" fill="#1B2232" stroke="#1B2232" stroke-width="0.3"/>
<path d="M11 5.85C8.15591 5.85 5.85 8.15591 5.85 11C5.85 13.8441 8.15591 16.15 11 16.15C13.8441 16.15 16.15 13.8441 16.15 11C16.15 8.15591 13.8441 5.85 11 5.85ZM11 13.975C9.36034 13.975 8.025 12.6397 8.025 11C8.025 9.35913 9.3603 8.025 11 8.025C12.6397 8.025 13.975 9.35913 13.975 11C13.975 12.6397 12.6397 13.975 11 13.975Z" fill="#1B2232" stroke="#1B2232" stroke-width="0.3"/>
<path d="M16.3752 6.44123C16.826 6.44123 17.1915 6.07579 17.1915 5.62499C17.1915 5.17419 16.826 4.80874 16.3752 4.80874C15.9244 4.80874 15.559 5.17419 15.559 5.62499C15.559 6.07579 15.9244 6.44123 16.3752 6.44123Z" fill="#1B2232" stroke="#1B2232" stroke-width="0.3"/>
</svg>
