<svg width="25" height="39" viewBox="0 0 25 39" fill="none" xmlns="http://www.w3.org/2000/svg">
<path d="M14.2099 18.8889L17.4785 22.1575H23.6072L1.85046 1.72864V31.759L6.03837 27.2647L5.73194 22.5661L14.2099 18.8889ZM5.6298 10.7173L11.1456 15.9267L5.73194 18.276L5.6298 10.7173Z" fill="white"/>
<path fill-rule="evenodd" clip-rule="evenodd" d="M17.4785 22.1575L14.2099 18.8889L5.73195 22.5661L6.03838 27.2647L1.85047 31.759V1.72865L23.6072 22.1575H17.4785ZM7.24577 23.4905L7.52651 27.7953L2.91163 32.7478L0.400024 31.759V1.72865L2.84332 0.671265L24.6 21.1001L23.6072 23.6079H16.8777L13.8819 20.6121L7.24577 23.4905ZM5.62981 10.7173L5.73195 18.276L11.1456 15.9267L5.62981 10.7173ZM7.12645 14.1259L7.15283 16.0783L8.55114 15.4714L7.12645 14.1259Z" fill="#1B2232"/>
<path d="M13.4782 23.7448L9.54852 25.4656L14.342 36.4126L18.2717 34.6918L13.4782 23.7448Z" fill="white"/>
<path fill-rule="evenodd" clip-rule="evenodd" d="M8.21996 26.0473L8.96679 24.1369L12.8965 22.4162L14.8069 23.163L19.6004 34.11L18.8535 36.0204L14.9238 37.7411L13.0134 36.9943L8.21996 26.0473ZM13.4783 23.7448L18.2717 34.6918L14.3421 36.4125L9.54857 25.4655L13.4783 23.7448Z" fill="#1B2232"/>
</svg>
