<svg width="12" height="12" viewBox="0 0 12 12" fill="none" xmlns="http://www.w3.org/2000/svg">
<path d="M4.44425 3.02226C3.03028 4.48521 3.33884 6.91301 4.95851 7.9885C5.01187 8.02395 5.08288 8.01692 5.12872 7.97213C5.4697 7.63896 5.75815 7.31625 6.01074 6.90581C6.04938 6.84302 6.02534 6.76154 5.96051 6.72641C5.71346 6.59257 5.46763 6.34161 5.32924 6.0765L5.32908 6.0766C5.1633 5.7465 5.10686 5.37646 5.19463 4.99431C5.19472 4.99433 5.19482 4.99435 5.19491 4.99435C5.2959 4.50509 5.82116 4.04996 6.22233 3.62905C6.22149 3.62877 6.22066 3.62846 6.21982 3.62818L7.72291 2.09407C8.32191 1.48271 9.30719 1.47767 9.91241 2.08289C10.5237 2.68187 10.5339 3.67212 9.93487 4.28346L9.02444 5.21969C8.9823 5.26302 8.96863 5.32624 8.98835 5.38338C9.19797 5.99127 9.24954 6.84841 9.10906 7.496C9.10512 7.51412 9.12749 7.52599 9.14046 7.51274L11.0782 5.53504C12.316 4.27166 12.3055 2.21471 11.0548 0.964044C9.77848 -0.3123 7.70063 -0.301678 6.43739 0.987609L4.45201 3.01396C4.44938 3.01673 4.44689 3.01954 4.44425 3.02226Z" fill="#1B2232"/>
<path d="M8.06699 8.26682C8.06697 8.26689 8.06692 8.26696 8.0669 8.26703C8.06814 8.26652 8.06929 8.26603 8.07053 8.26549C8.46598 7.54237 8.54383 6.71304 8.35849 5.90458L8.35765 5.90545L8.35674 5.90505C8.18076 5.18498 7.6979 4.46996 7.0421 4.02972C6.98569 3.99186 6.89558 3.99624 6.84275 4.03896C6.51056 4.30756 6.18541 4.65199 5.97086 5.09152C5.93716 5.16053 5.96239 5.24342 6.0288 5.28196C6.27779 5.42652 6.50266 5.63816 6.65322 5.91914L6.65345 5.91898C6.77078 6.11746 6.88641 6.49408 6.81151 6.89875C6.81147 6.89875 6.8114 6.89875 6.81135 6.89875C6.74148 7.43526 6.19969 7.92739 5.76899 8.37084L5.7692 8.37105C5.44135 8.70631 4.60794 9.55592 4.27423 9.89686C3.67525 10.5082 2.685 10.5183 2.07366 9.91932C1.46232 9.32034 1.45222 8.33009 2.0512 7.71875L2.96433 6.7797C3.00572 6.73715 3.01979 6.67529 3.00138 6.61885C2.79863 5.99675 2.74308 5.15893 2.87106 4.51207C2.87462 4.49404 2.85244 4.48253 2.83957 4.49566L0.931017 6.4436C-0.319512 7.71995 -0.308913 9.798 0.954605 11.0615C2.23088 12.312 4.29822 12.2909 5.5487 11.0146C5.98312 10.5286 7.84273 8.80688 8.06699 8.26682Z" fill="#1B2232"/>
</svg>
